<svg xmlns="http://www.w3.org/2000/svg" width="100" height="100" viewBox="0 0 100 100" fill="none"><g clip-path="url(#clip0_1529_3092)"><path d="M84.95 0H15.05C6.73811 0 0 6.73811 0 15.05V84.95C0 93.2619 6.73811 100 15.05 100H84.95C93.2619 100 100 93.2619 100 84.95V15.05C100 6.73811 93.2619 0 84.95 0Z" fill="#124B80"></path><path d="M48.2813 79.8375C41.6563 79.8375 35.4313 77.2687 30.7313 72.6C26.0125 67.9125 23.4063 61.6687 23.3875 55.0125C23.35 42.8 32.0625 32.45 44.0938 30.3937C62.4063 26.8625 66.9313 25.3687 73.2125 17.5812C73.6125 17.0875 74.2438 16.8312 74.875 16.8937C75.5125 16.9625 76.0625 17.35 76.35 17.9187C79.9188 25.0625 83.125 32.5125 83.125 45.075C83.125 54.2312 79.3688 62.9562 72.5563 69.6437C65.95 76.125 57.1313 79.8437 48.3563 79.8437H48.2813V79.8375ZM74.2375 22.1375C68.0313 28.9312 61.8875 30.7687 44.7625 34.075C34.5 35.8312 27.1 44.625 27.1313 54.9937C27.1688 66.6312 36.65 76.0812 48.2813 76.0812C48.3063 76.0812 48.3313 76.0812 48.35 76.0812C64.875 76.0812 79.3688 61.5875 79.3688 45.0625C79.3688 34.7375 77.1375 28.2812 74.2313 22.1375H74.2375Z" fill="white"></path><path d="M18.75 83.125C17.7125 83.125 16.875 82.2874 16.875 81.2499C16.875 70.1687 23.8563 61.9 35.0938 59.675C42.8875 58.1312 50.7437 53.1812 53.6062 50.3187C54.3375 49.5875 55.525 49.5875 56.2563 50.3187C56.9875 51.05 56.9875 52.2374 56.2563 52.9687C52.9813 56.2499 44.4688 61.6375 35.8188 63.35C26.3 65.2375 20.6188 71.9249 20.6188 81.2499C20.6188 82.2874 19.7812 83.125 18.7437 83.125H18.75Z" fill="white"></path></g><defs><clipPath id="clip0_1529_3092"><rect width="100" height="100" fill="white"></rect></clipPath></defs></svg>